<svg width="24" height="24" viewBox="0 0 24 24" fill="none" xmlns="http://www.w3.org/2000/svg">
	<path fill-rule="evenodd" clip-rule="evenodd" d="M12 3.75C7.44365 3.75 3.75 7.44365 3.75 12C3.75 16.5563 7.44365 20.25 12 20.25C16.5563 20.25 20.25 16.5563 20.25 12C20.25 7.44365 16.5563 3.75 12 3.75ZM2.25 12C2.25 6.61522 6.61522 2.25 12 2.25C17.3848 2.25 21.75 6.61522 21.75 12C21.75 17.3848 17.3848 21.75 12 21.75C6.61522 21.75 2.25 17.3848 2.25 12ZM16.6675 9.23214C16.9535 9.53177 16.9425 10.0065 16.6429 10.2925L11.1428 15.5425C10.853 15.8192 10.3969 15.8192 10.1071 15.5425L7.35714 12.9175C7.05752 12.6315 7.04648 12.1568 7.33249 11.8571C7.61849 11.5575 8.09324 11.5465 8.39286 11.8325L10.625 13.9632L15.6071 9.20748C15.9068 8.92148 16.3815 8.93252 16.6675 9.23214Z" fill="currentColor" />
</svg>
