<svg width="24" height="24" viewBox="0 0 24 24" fill="none" xmlns="http://www.w3.org/2000/svg">
	<path fill-rule="evenodd" clip-rule="evenodd" d="M17.8154 2.0729C18.2462 1.64213 18.9435 1.64274 19.3726 2.07248L19.3734 2.07332C19.8034 2.50262 19.8034 3.19967 19.3734 3.62896L19.373 3.62938L12.3724 10.63L10.2962 11.1494L10.8149 9.07339L17.8154 2.0729ZM16.7547 1.01224C17.7708 -0.00382313 19.4185 -0.00445196 20.434 1.01258L20.4341 1.01266C21.45 2.02786 21.4499 3.67501 20.4337 4.69004L20.4336 4.69012L20.4332 4.69046L13.2862 11.8375C13.1901 11.9336 13.0698 12.0017 12.9379 12.0347L9.44764 12.9079C9.19207 12.9718 8.92169 12.897 8.73538 12.7107C8.54906 12.5244 8.47413 12.2541 8.53799 11.9985L9.40999 8.50821C9.44295 8.37629 9.51115 8.25582 9.6073 8.15967L16.7547 1.01224ZM3.75048 4.76829C3.75048 4.19685 4.20558 3.75 4.74628 3.75H4.77699H4.80752H4.83785H4.868H4.89797H4.92775H4.95735H4.98677H5.016H5.04505H5.07392H5.10261H5.13112H5.15946H5.18761H5.21559H5.24338H5.27101H5.29845H5.32572H5.35282H5.37974H5.40648H5.43306H5.45946H5.48569H5.51175H5.53764H5.56336H5.58891H5.61429H5.6395H5.66455H5.68942H5.71414H5.73868H5.76306H5.78728H5.81133H5.83522H5.85895H5.88252H5.90592H5.92916H5.95225H5.97517H5.99794H6.02054H6.04299H6.06528H6.08742H6.1094H6.13122H6.15289H6.17441H6.19577H6.21698H6.23804H6.25894H6.2797H6.3003H6.32076H6.34107H6.36122H6.38123H6.4011H6.42081H6.44038H6.45981H6.47909H6.49822H6.51721H6.53606H6.55477H6.57334H6.59176H6.61004H6.62819H6.64619H6.66406H6.68178H6.69937H6.71683H6.73415H6.75133H6.76837H6.78529H6.80206H6.81871H6.83522H6.8516H6.86785H6.88397H6.89996H6.91582H6.93155H6.94716H6.96263H6.97798H6.9932H7.0083H7.02327H7.03811H7.05284H7.06743H7.08191H7.09627H7.1105H7.12461H7.1386H7.15247H7.16623H7.17986H7.19338H7.20678H7.22006H7.23323H7.24628H7.25922H7.27204H7.28475H7.29735H7.30983H7.3222H7.33446H7.34661H7.35866H7.37059H7.38241H7.39413H7.40574H7.41724H7.42863H7.43992H7.45111H7.46219H7.47316H7.48404H7.49481H7.50548H7.51605H7.52651H7.53688H7.54715H7.55732H7.56739H7.57737H7.58724H7.59702H7.60671H7.6163H7.62579H7.63519H7.6445H7.65372H7.66284H7.67187H7.68081H7.68966H7.69843H7.7071H7.71568H7.72418H7.73259H7.74091H7.74915H7.7573H7.76537H7.77335H7.78125H7.78907H7.7968H7.80445H7.81202H7.81952H7.82693H7.83426H7.84151H7.84869H7.85579H7.86281H7.86976H7.87663H7.88342H7.89014H7.89679H7.90337H7.90987H7.9163H7.92266H7.92895H7.93517H7.94132H7.9474H7.95341H7.95936H7.96523H7.97105H7.97679H7.98247H7.98809H7.99364H7.99913H8.00456H8.00993H8.01523H8.02047H8.02566H8.03078H8.03584H8.04085H8.0458H8.05069H8.05553H8.06031H8.06503H8.0697H8.07432H8.07888H8.08339H8.08784H8.09225H8.0966H8.10091H8.10516H8.10937H8.11353H8.11763H8.1217H8.12571H8.12968H8.13361H8.13748H8.14132H8.14511H8.14886H8.15257H8.15623H8.15985H8.16344H8.16698H8.17048H8.17395H8.17737H8.18076H8.18411H8.18743H8.19071H8.19396H8.19717H8.20035H8.20349H8.2066H8.20968H8.21273H8.21575H8.21874H8.2217H8.22463H8.22753H8.2304H8.23325H8.23607H8.23886H8.24163H8.24438H8.2471H8.24979H8.25247H8.25512H8.25775H8.26036H8.26295H8.26552H8.26807H8.27061H8.27312H8.27562H8.2781H8.28057H8.28302H8.28545H8.28787H8.29028H8.29268H8.29506H8.29743H8.29979H8.30214H8.30448H8.30681H8.30913H8.31144H8.31375H8.31605H8.31834H8.32063H8.32291H8.32519H8.32746H8.32974H8.332H8.33427H8.33654H8.3388H8.34107H8.34333H8.3456H8.34787H8.35014H8.35242H8.35469H8.35698H8.35926H8.36156H8.36386H8.36616H8.36847H8.37079H8.37312H8.37546H8.37781H8.38017H8.38254H8.38492H8.38731H8.38972H8.39214H8.39458H8.39702H8.39949H8.40197H8.40446H8.40698H8.40951H8.41206H8.41463H8.41722H8.41982H8.42245H8.42511H8.42778H8.43047H8.43319H8.43594H8.4387H8.44149H8.44431H8.44716H8.45003H8.45293H8.45585H8.45881H8.4618H8.46481H8.46786H8.47094H8.47404H8.47719H8.48036H8.48357H8.48681H8.49009H8.4934H8.49675H8.50014H8.50356H8.50702H8.51052H8.51406H8.51764H8.52126H8.52492H8.52863H8.53237H8.53616H8.53999H8.54387H8.54779H8.55175H8.55576H8.55982H8.56393H8.56808H8.57228H8.57653H8.58083H8.58518H8.58958H8.59404H8.59854H8.6031H8.60771H8.61238H8.6171H8.62187H8.6267H8.63159H8.63653H8.64153H8.64659H8.65171H8.65689H8.66213H8.66743H8.67279H8.67821H8.68369H8.68924H8.69485H8.70053H8.70627H8.71208H8.71795H8.72389H8.7299H8.73597H8.74212H8.74833H8.75461H8.76097H8.76739H8.77389H8.78046H8.7871H8.79381H8.8006H8.80747H8.81441H8.82142H8.82851H8.83568H8.84293H8.85026H8.85766H8.86515H8.87271H8.88036H8.88809H8.8959H8.90379H8.91176H8.91982H8.92797H8.9362H8.94451H8.95292H8.96141H8.96998H8.97865H8.9874H8.99625H9.00518H9.0142H9.02332H9.03253H9.04183H9.05122H9.06071H9.07029H9.07997H9.08974H9.09961H9.10958H9.11964H9.1298H9.14006H9.15042H9.16088H9.17144H9.1821H9.19286H9.20373H9.2147H9.22577H9.23695H9.24823H9.25961H9.27111H9.2827H9.29441H9.30623H9.31815H9.33018H9.34232H9.35458H9.36694H9.37941H9.392H9.4047H9.41752H9.43044H9.44348H9.45664H9.46992H9.48331H9.49681H9.51044H9.52418H9.53804H9.55202H9.56613H9.58035H9.59469H9.60916H9.62375H9.63846H9.6533H9.66826H9.68334H9.69855H9.71389C10.1281 3.75 10.4639 3.41421 10.4639 3C10.4639 2.58579 10.1281 2.25 9.71389 2.25H9.69855H9.68334H9.66826H9.6533H9.63846H9.62375H9.60916H9.59469H9.58035H9.56613H9.55202H9.53804H9.52418H9.51044H9.49681H9.48331H9.46992H9.45664H9.44348H9.43044H9.41752H9.4047H9.392H9.37941H9.36694H9.35458H9.34232H9.33018H9.31815H9.30623H9.29441H9.2827H9.27111H9.25961H9.24823H9.23695H9.22577H9.2147H9.20373H9.19286H9.1821H9.17144H9.16088H9.15042H9.14006H9.1298H9.11964H9.10958H9.09961H9.08974H9.07997H9.07029H9.06071H9.05122H9.04183H9.03253H9.02332H9.0142H9.00518H8.99625H8.9874H8.97865H8.96998H8.96141H8.95292H8.94451H8.9362H8.92797H8.91982H8.91176H8.90379H8.8959H8.88809H8.88036H8.87271H8.86515H8.85766H8.85026H8.84293H8.83568H8.82851H8.82142H8.81441H8.80747H8.8006H8.79381H8.7871H8.78046H8.77389H8.76739H8.76097H8.75461H8.74833H8.74212H8.73597H8.7299H8.72389H8.71795H8.71208H8.70627H8.70053H8.69485H8.68924H8.68369H8.67821H8.67279H8.66743H8.66213H8.65689H8.65171H8.64659H8.64153H8.63653H8.63159H8.6267H8.62187H8.6171H8.61238H8.60771H8.6031H8.59854H8.59404H8.58958H8.58518H8.58083H8.57653H8.57228H8.56808H8.56393H8.55982H8.55576H8.55175H8.54779H8.54387H8.53999H8.53616H8.53237H8.52863H8.52492H8.52126H8.51764H8.51406H8.51052H8.50702H8.50356H8.50014H8.49675H8.4934H8.49009H8.48681H8.48357H8.48036H8.47719H8.47404H8.47094H8.46786H8.46481H8.4618H8.45881H8.45585H8.45293H8.45003H8.44716H8.44431H8.44149H8.4387H8.43594H8.43319H8.43047H8.42778H8.42511H8.42245H8.41982H8.41722H8.41463H8.41206H8.40951H8.40698H8.40446H8.40197H8.39949H8.39702H8.39458H8.39214H8.38972H8.38731H8.38492H8.38254H8.38017H8.37781H8.37546H8.37312H8.37079H8.36847H8.36616H8.36386H8.36156H8.35926H8.35698H8.35469H8.35242H8.35014H8.34787H8.3456H8.34333H8.34107H8.3388H8.33654H8.33427H8.332H8.32974H8.32746H8.32519H8.32291H8.32063H8.31834H8.31605H8.31375H8.31144H8.30913H8.30681H8.30448H8.30214H8.29979H8.29743H8.29506H8.29268H8.29028H8.28787H8.28545H8.28302H8.28057H8.2781H8.27562H8.27312H8.27061H8.26807H8.26552H8.26295H8.26036H8.25775H8.25512H8.25247H8.24979H8.2471H8.24438H8.24163H8.23886H8.23607H8.23325H8.2304H8.22753H8.22463H8.2217H8.21874H8.21575H8.21273H8.20968H8.2066H8.20349H8.20035H8.19717H8.19396H8.19071H8.18743H8.18411H8.18076H8.17737H8.17395H8.17048H8.16698H8.16344H8.15985H8.15623H8.15257H8.14886H8.14511H8.14132H8.13748H8.13361H8.12968H8.12571H8.1217H8.11763H8.11353H8.10937H8.10516H8.10091H8.0966H8.09225H8.08784H8.08339H8.07888H8.07432H8.0697H8.06503H8.06031H8.05553H8.05069H8.0458H8.04085H8.03584H8.03078H8.02566H8.02047H8.01523H8.00993H8.00456H7.99913H7.99364H7.98809H7.98247H7.97679H7.97105H7.96523H7.95936H7.95341H7.9474H7.94132H7.93517H7.92895H7.92266H7.9163H7.90987H7.90337H7.89679H7.89014H7.88342H7.87663H7.86976H7.86281H7.85579H7.84869H7.84151H7.83426H7.82693H7.81952H7.81202H7.80445H7.7968H7.78907H7.78125H7.77335H7.76537H7.7573H7.74915H7.74091H7.73259H7.72418H7.71568H7.7071H7.69843H7.68966H7.68081H7.67187H7.66284H7.65372H7.6445H7.63519H7.62579H7.6163H7.60671H7.59702H7.58724H7.57737H7.56739H7.55732H7.54715H7.53688H7.52651H7.51605H7.50548H7.49481H7.48404H7.47316H7.46219H7.45111H7.43992H7.42863H7.41724H7.40574H7.39413H7.38241H7.37059H7.35866H7.34661H7.33446H7.3222H7.30983H7.29735H7.28475H7.27204H7.25922H7.24628H7.23323H7.22006H7.20678H7.19338H7.17986H7.16623H7.15247H7.1386H7.12461H7.1105H7.09627H7.08191H7.06743H7.05284H7.03811H7.02327H7.0083H6.9932H6.97798H6.96263H6.94716H6.93155H6.91582H6.89996H6.88397H6.86785H6.8516H6.83522H6.81871H6.80206H6.78529H6.76837H6.75133H6.73415H6.71683H6.69937H6.68178H6.66406H6.64619H6.62819H6.61004H6.59176H6.57334H6.55477H6.53606H6.51721H6.49822H6.47909H6.45981H6.44038H6.42081H6.4011H6.38123H6.36122H6.34107H6.32076H6.3003H6.2797H6.25894H6.23804H6.21698H6.19577H6.17441H6.15289H6.13122H6.1094H6.08742H6.06528H6.04299H6.02054H5.99794H5.97517H5.95225H5.92916H5.90592H5.88252H5.85895H5.83522H5.81133H5.78728H5.76306H5.73868H5.71414H5.68942H5.66455H5.6395H5.61429H5.58891H5.56336H5.53764H5.51175H5.48569H5.45946H5.43306H5.40648H5.37974H5.35282H5.32572H5.29845H5.27101H5.24338H5.21559H5.18761H5.15946H5.13112H5.10261H5.07392H5.04505H5.016H4.98677H4.95735H4.92775H4.89797H4.868H4.83785H4.80752H4.77699H4.74628C3.35941 2.25 2.25049 3.38627 2.25048 4.76826V4.76829L2.25 16.234V16.234C2.25 17.6152 3.35924 18.7512 4.74581 18.7512H12H12.0002L16.9113 18.7501L20.538 21.5905C20.7639 21.7674 21.0709 21.7999 21.3289 21.6743C21.5868 21.5487 21.7505 21.2869 21.7505 21V8.24007C21.7505 7.82585 21.4147 7.49007 21.0005 7.49007C20.5863 7.49007 20.2505 7.82585 20.2505 8.24007V19.46L17.6324 17.4095C17.5004 17.3061 17.3375 17.25 17.1698 17.25L12 17.2512H11.9998H4.74581C4.20479 17.2512 3.75002 16.804 3.75 16.2341V16.234L3.75048 4.76832V4.76829Z" fill="currentColor" />
</svg>
