<svg width="16" height="16" viewBox="0 0 16 16" fill="none" xmlns="http://www.w3.org/2000/svg">
	<path fill-rule="evenodd" clip-rule="evenodd" d="M4.1111 2.17971C5.26225 1.41054 6.61562 1 8.00009 1C8.91935 1 9.8296 1.18106 10.6789 1.53284C11.5282 1.88463 12.2998 2.40024 12.9498 3.05025C13.5998 3.70026 14.1155 4.47194 14.4672 5.32121C14.819 6.17049 15.0001 7.08075 15.0001 8C15.0001 9.38447 14.5895 10.7378 13.8204 11.889C13.0512 13.0401 11.958 13.9373 10.6789 14.4672C9.3998 14.997 7.99233 15.1356 6.63446 14.8655C5.2766 14.5954 4.02931 13.9287 3.05035 12.9497C2.07138 11.9708 1.40469 10.7235 1.1346 9.36563C0.864501 8.00776 1.00312 6.6003 1.53294 5.32121C2.06275 4.04213 2.95996 2.94888 4.1111 2.17971ZM8.00009 6C8.55238 6 9.00009 5.55228 9.00009 5C9.00009 4.44772 8.55238 4 8.00009 4C7.44781 4 7.00009 4.44772 7.00009 5C7.00009 5.55228 7.44781 6 8.00009 6ZM7.00009 8C7.00009 7.44772 7.44781 7 8.00009 7C8.55238 7 9.00009 7.44772 9.00009 8V11C9.00009 11.5523 8.55238 12 8.00009 12C7.44781 12 7.00009 11.5523 7.00009 11V8Z" fill="currentColor" />
</svg>
