<svg width="196" height="48" viewBox="0 0 196 48" fill="none" xmlns="http://www.w3.org/2000/svg">
	<path fill-rule="evenodd" clip-rule="evenodd" d="M41.4256 29.8806C41.4791 31.4045 41.8219 35.283 43.8124 39.8603C46.3096 45.6002 44.3759 45.1023 42.516 44.6235C42.4604 44.6092 42.4049 44.5949 42.3496 44.5808C42.0268 44.4988 41.6365 44.3763 41.2045 44.2406C39.0849 43.575 35.9598 42.5938 34.8553 44.5366L34.808 44.6197C33.4983 46.9221 32.3793 48.889 29.312 47.5808C26.2079 46.2576 24.7446 45.8166 24.3019 45.8166H23.699C23.2558 45.8166 21.793 46.2576 18.6886 47.5808C15.6204 48.8894 14.5011 46.9208 13.1916 44.6175L13.1456 44.5366C12.0405 42.5936 8.91481 43.5752 6.79535 44.2408C6.36361 44.3764 5.97363 44.4988 5.65098 44.5808C5.59578 44.5949 5.54038 44.6091 5.48493 44.6234C3.62484 45.1023 1.68982 45.6005 4.18765 39.8603C6.10144 35.4613 6.49258 31.7013 6.56694 30.0619V17.3424C6.56694 7.76411 14.3706 0 23.997 0C33.6223 0 41.4256 7.76411 41.4256 17.3424V29.8806ZM35.25 19.9999C35.25 26.2041 30.2277 31.2354 24.0268 31.2498L24 31.2501L23.9732 31.2498C17.7723 31.2354 12.75 26.2041 12.75 19.9999C12.75 13.7867 17.7868 8.74988 24 8.74988C30.2132 8.74988 35.25 13.7867 35.25 19.9999ZM15.3386 18.7499C15.8081 15.468 18.0987 12.7736 21.1539 11.7232C19.8601 13.8519 19.0589 16.2534 18.8212 18.7499H15.3386ZM29.1788 18.7499C28.9411 16.2534 28.1399 13.8519 26.8461 11.7232C29.9013 12.7736 32.1919 15.468 32.6614 18.7499H29.1788ZM24 11.9649C25.4692 13.9516 26.3894 16.2924 26.6655 18.7499H21.3345C21.6106 16.2924 22.5308 13.9516 24 11.9649ZM26.6655 21.2499H21.3345C21.6105 23.7075 22.5307 26.0486 24 28.0354C25.4693 26.0486 26.3895 23.7075 26.6655 21.2499ZM15.3386 21.2499H18.8211C19.0587 23.7463 19.8599 26.1478 21.1535 28.2764C18.0985 27.226 15.808 24.5316 15.3386 21.2499ZM29.1789 21.2499C28.9413 23.7463 28.1401 26.1478 26.8465 28.2764C29.9015 27.226 32.192 24.5316 32.6614 21.2499H29.1789Z" fill="currentColor" />
	<path d="M60.8603 13.3759H62.257V16.9793C62.257 18.3759 61.6425 18.8787 60.6648 18.8787C59.6872 18.8787 59.0726 18.3759 59.0726 16.9793V6.42062C59.0726 5.02397 59.6872 4.49325 60.6648 4.49325C61.6425 4.49325 62.257 5.02397 62.257 6.42062V8.51559H65.162V6.61615C65.162 3.48766 63.5978 1.69995 60.581 1.69995C57.5642 1.69995 56 3.48766 56 6.61615V16.7837C56 19.9122 57.5642 21.7 60.581 21.7C63.5978 21.7 65.162 19.9122 65.162 16.7837V10.5826H60.8603V13.3759Z" fill="currentColor" />
	<path d="M70.2081 13.0966H73.6997V21.4765H76.8282V1.92341H73.6997V10.3033H70.2081V1.92341H67.1354V21.4765H70.2081V13.0966Z" fill="currentColor" />
	<path d="M81.8773 6.42062C81.8773 5.02397 82.4918 4.49325 83.4694 4.49325C84.4471 4.49325 85.0616 5.02397 85.0616 6.42062V16.9793C85.0616 18.3759 84.4471 18.9067 83.4694 18.9067C82.4918 18.9067 81.8773 18.3759 81.8773 16.9793V6.42062ZM78.8046 16.7837C78.8046 19.9122 80.4527 21.7 83.4694 21.7C86.4862 21.7 88.1343 19.9122 88.1343 16.7837V6.61615C88.1343 3.48766 86.4862 1.69995 83.4694 1.69995C80.4527 1.69995 78.8046 3.48766 78.8046 6.61615V16.7837Z" fill="currentColor" />
	<path d="M89.74 6.61615C89.74 12.2027 95.7455 12.9569 95.7455 16.9793C95.7455 18.3759 95.131 18.8787 94.1534 18.8787C93.1757 18.8787 92.5612 18.3759 92.5612 16.9793V15.5826H89.6562V16.7837C89.6562 19.9122 91.2204 21.7 94.2372 21.7C97.2539 21.7 98.8182 19.9122 98.8182 16.7837C98.8182 11.1972 92.8126 10.443 92.8126 6.42062C92.8126 5.02397 93.3712 4.49325 94.3489 4.49325C95.3265 4.49325 95.8852 5.02397 95.8852 6.42062V7.23068H98.7902V6.61615C98.7902 3.48766 97.2539 1.69995 94.2651 1.69995C91.2763 1.69995 89.74 3.48766 89.74 6.61615Z" fill="currentColor" />
	<path d="M99.6847 4.71671H102.897V21.4765H105.97V4.71671H109.182V1.92341H99.6847V4.71671Z" fill="currentColor" />
	<path d="M113.608 4.71671H118.915V1.92341H110.535V21.4765H118.915V18.6832H113.608V12.9569H117.826V10.1636H113.608V4.71671Z" fill="currentColor" />
	<path d="M130.372 21.4765C130.065 20.7502 130.037 20.0519 130.037 19.1022V16.0854C130.037 14.0463 129.534 12.5659 127.998 11.9234C129.367 11.281 130.009 9.96811 130.009 7.95693V6.42062C130.009 3.40386 128.64 1.92341 125.456 1.92341H120.819V21.4765H123.892V13.5156H124.953C126.35 13.5156 126.964 14.186 126.964 16.0016V19.0743C126.964 20.6664 127.076 20.9737 127.244 21.4765H130.372ZM125.372 4.71671C126.462 4.71671 126.936 5.33124 126.936 6.72788V8.65526C126.936 10.2195 126.238 10.7223 125.093 10.7223H123.892V4.71671H125.372Z" fill="currentColor" />
	<path d="M134.662 21.4765H137.735V14.996L141.617 1.92341H138.684L136.338 10.834L133.992 1.92341H130.779L134.662 14.996V21.4765Z" fill="currentColor" />
	<path d="M55.9999 27.8567V46.1432H57.2016V38.6196H59.4744C62.3741 38.6196 63.7064 37.1828 63.7064 34.2831V32.2977C63.7064 29.6331 62.6092 27.8567 59.7879 27.8567H55.9999ZM57.2016 37.5224V28.9539H59.7879C61.8255 28.9539 62.5047 30.2339 62.5047 32.2193V34.3615C62.5047 36.582 61.5904 37.5224 59.4744 37.5224H57.2016Z" fill="currentColor" />
	<path d="M65.5667 27.8567V46.1432H66.7684V37.9665H68.6754C70.7653 37.9665 72.0976 38.6457 72.0976 41.0752V43.9488C72.0976 44.9415 72.1759 45.5946 72.4894 46.1432H73.7434C73.3515 45.5424 73.2993 44.7064 73.2993 43.9488V41.1014C73.2993 39.116 72.5417 37.7837 70.6608 37.3657C72.4633 36.9477 73.2993 35.7199 73.2993 33.5778V31.9842C73.2993 29.398 72.1759 27.8567 69.3807 27.8567H65.5667ZM66.7684 36.8693V28.9539H69.3546C71.34 28.9539 72.0976 30.1294 72.0976 32.0887V33.8129C72.0976 36.2685 70.8436 36.8693 68.7015 36.8693H66.7684Z" fill="currentColor" />
	<path d="M75.6436 27.8567V46.1432H76.8453V27.8567H75.6436Z" fill="currentColor" />
	<path d="M78.6734 27.8567L82.6964 46.1432H84.4728L88.4436 27.8567H87.3203L83.6107 44.7587L79.9012 27.8567H78.6734Z" fill="currentColor" />
	<path d="M97.0435 42.0941L97.9579 46.1432H99.1595L95.0843 27.8306H93.334L89.3371 46.1432H90.4343L91.3486 42.0941H97.0435ZM94.1699 29.2151L96.8607 41.0491H91.5315L94.1699 29.2151Z" fill="currentColor" />
	<path d="M104.266 46.1432V28.9539H108.001V27.8567H99.3544V28.9539H103.064V46.1432H104.266Z" fill="currentColor" />
	<path d="M110.699 36.3207V28.9539H116.707V27.8567H109.497V46.1432H116.707V45.046H110.699V37.4179H115.688V36.3207H110.699Z" fill="currentColor" />
	<path d="M122.712 27.8567V46.1432H126.631C129.426 46.1432 130.627 44.5497 130.627 41.9112V40.3176C130.627 38.2539 129.87 36.791 127.884 36.3991C129.739 36.0073 130.288 34.7794 130.288 32.7941V31.7491C130.288 29.2151 129.295 27.8567 126.552 27.8567H122.712ZM123.914 35.9289V28.9539H126.526C128.485 28.9539 129.086 29.9466 129.086 31.8536V33.0292C129.086 35.3542 128.093 35.9289 125.951 35.9289H123.914ZM123.914 45.046V37.0261H126.186C128.355 37.0261 129.426 37.862 129.426 40.2393V41.8851C129.426 43.9227 128.642 45.046 126.631 45.046H123.914Z" fill="currentColor" />
	<path d="M132.585 27.8567V46.1432H133.787V37.9665H135.694C137.783 37.9665 139.116 38.6457 139.116 41.0752V43.9488C139.116 44.9415 139.194 45.5946 139.508 46.1432H140.762C140.37 45.5424 140.317 44.7064 140.317 43.9488V41.1014C140.317 39.116 139.56 37.7837 137.679 37.3657C139.481 36.9477 140.317 35.7199 140.317 33.5778V31.9842C140.317 29.398 139.194 27.8567 136.399 27.8567H132.585ZM133.787 36.8693V28.9539H136.373C138.358 28.9539 139.116 30.1294 139.116 32.0887V33.8129C139.116 36.2685 137.862 36.8693 135.72 36.8693H133.787Z" fill="currentColor" />
	<path d="M142.583 41.6761C142.583 44.3407 143.811 46.2999 146.58 46.2999C149.402 46.2999 150.629 44.3407 150.629 41.6761V32.3238C150.629 29.6592 149.402 27.7 146.58 27.7C143.811 27.7 142.583 29.6592 142.583 32.3238V41.6761ZM143.785 32.2455C143.785 30.2601 144.569 28.7971 146.58 28.7971C148.618 28.7971 149.428 30.2601 149.428 32.2455V41.7544C149.428 43.7398 148.618 45.2028 146.58 45.2028C144.569 45.2028 143.785 43.7398 143.785 41.7544V32.2455Z" fill="currentColor" />
	<path d="M159.56 31.1744L162.016 46.1432H163.583L166.509 27.8567H165.438L162.799 44.4713L160.239 27.9351H158.959L156.295 44.5235L153.552 27.8567H152.376L155.328 46.1432H157L159.56 31.1744Z" fill="currentColor" />
	<path d="M172.166 27.7C169.475 27.7261 168.273 29.5025 168.273 32.2455C168.273 37.3396 174.883 37.4179 174.883 41.8067C174.883 43.766 174.125 45.1766 172.113 45.1766C170.102 45.1766 169.344 43.766 169.344 41.8067V40.7879H168.195V41.7283C168.195 44.3668 169.344 46.2999 172.14 46.2999C174.935 46.2999 176.084 44.3668 176.084 41.7283C176.084 36.6865 169.475 36.6081 169.475 32.1671C169.475 30.2339 170.206 28.7971 172.192 28.7971C174.177 28.7971 174.909 30.2601 174.909 32.1932V32.6634H176.058V32.2716C176.058 29.6331 174.935 27.7 172.166 27.7Z" fill="currentColor" />
	<path d="M179.222 36.3207V28.9539H185.231V27.8567H178.02V46.1432H185.231V45.046H179.222V37.4179H184.212V36.3207H179.222Z" fill="currentColor" />
	<path d="M187.179 27.8567V46.1432H188.381V37.9665H190.288C192.378 37.9665 193.71 38.6457 193.71 41.0752V43.9488C193.71 44.9415 193.788 45.5946 194.102 46.1432H195.356C194.964 45.5424 194.912 44.7064 194.912 43.9488V41.1014C194.912 39.116 194.154 37.7837 192.273 37.3657C194.076 36.9477 194.912 35.7199 194.912 33.5778V31.9842C194.912 29.398 193.788 27.8567 190.993 27.8567H187.179ZM188.381 36.8693V28.9539H190.967C192.952 28.9539 193.71 30.1294 193.71 32.0887V33.8129C193.71 36.2685 192.456 36.8693 190.314 36.8693H188.381Z" fill="currentColor" />
</svg>
