<svg width="24" height="24" viewBox="0 0 24 24" fill="none" xmlns="http://www.w3.org/2000/svg">
	<path d="M4.90215 8.58461C5.0733 8.22966 5.27088 7.88807 5.49321 7.56273L5.45226 5.12975C5.4504 5.01806 5.47343 4.90735 5.51967 4.80567C5.56592 4.70399 5.63423 4.61388 5.71963 4.54188C6.5978 3.80102 7.60014 3.22138 8.68028 2.82977C8.78507 2.79203 8.89695 2.7781 9.00779 2.789C9.11863 2.79989 9.22566 2.83533 9.3211 2.89274L11.411 4.14674L11.4089 4.14544C11.8018 4.11618 12.1965 4.1165 12.5894 4.14637L14.6759 2.89442C14.7717 2.83696 14.8791 2.80155 14.9903 2.79076C15.1015 2.77997 15.2137 2.79407 15.3187 2.83204C16.3994 3.22212 17.4026 3.80035 18.2818 4.53997C18.3669 4.61185 18.4349 4.70178 18.4808 4.80322C18.5268 4.90466 18.5497 5.01506 18.5477 5.12642L18.5066 7.56335L18.5067 7.56084C18.7285 7.88653 18.9255 8.22843 19.0961 8.58364L21.2236 9.76467C21.3213 9.8189 21.4056 9.8942 21.4706 9.98509C21.5355 10.076 21.5794 10.1802 21.599 10.2902C21.8014 11.42 21.8024 12.5767 21.602 13.7069C21.5825 13.8172 21.5386 13.9216 21.4736 14.0128C21.4087 14.1039 21.3242 14.1794 21.2263 14.2338L19.0956 15.4166L19.0977 15.4154C18.9266 15.7704 18.729 16.1119 18.5067 16.4373L18.5476 18.8703C18.5495 18.982 18.5265 19.0927 18.4802 19.1943C18.434 19.296 18.3657 19.3861 18.2803 19.4581C17.4021 20.199 16.3998 20.7786 15.3196 21.1703C15.2148 21.208 15.103 21.2219 14.9921 21.211C14.8813 21.2001 14.7742 21.1647 14.6788 21.1073L12.5889 19.8533L12.591 19.8546C12.1981 19.8838 11.8034 19.8835 11.4105 19.8536L9.32398 21.1056C9.22818 21.1631 9.1208 21.1985 9.00961 21.2093C8.89843 21.2201 8.78624 21.206 8.68118 21.168C7.60049 20.7779 6.59734 20.1997 5.71813 19.4601C5.63305 19.3882 5.56505 19.2983 5.51906 19.1968C5.47308 19.0954 5.45025 18.985 5.45226 18.8736L5.49328 16.4367L5.49323 16.4392C5.27141 16.1135 5.07438 15.7716 4.90379 15.4164L2.77629 14.2353C2.67863 14.1811 2.59428 14.1058 2.52934 14.0149C2.4644 13.924 2.42052 13.8198 2.40087 13.7099C2.19854 12.58 2.19753 11.4233 2.39788 10.2931C2.41742 10.1829 2.46128 10.0784 2.52627 9.98726C2.59125 9.89613 2.67573 9.82063 2.77355 9.76625L4.90435 8.58339L4.90215 8.58461Z" stroke="currentColor" stroke-width="1.5" stroke-linecap="round" stroke-linejoin="round" />
	<path d="M12 16.5C14.4852 16.5 16.4999 14.4853 16.4999 12C16.4999 9.51471 14.4852 7.5 12 7.5C9.51468 7.5 7.49997 9.51471 7.49997 12C7.49997 14.4853 9.51468 16.5 12 16.5Z" stroke="currentColor" stroke-width="1.5" stroke-linecap="round" stroke-linejoin="round" />
</svg>
