<svg width="64" height="64" viewBox="0 0 64 64" fill="none" xmlns="http://www.w3.org/2000/svg">
	<path d="M59.2 47.0226L37.3375 9.0551C36.7912 8.12492 36.0112 7.35365 35.075 6.81775C34.1388 6.28186 33.0788 5.99994 32 5.99994C30.9212 5.99994 29.8612 6.28186 28.925 6.81775C27.9887 7.35365 27.2088 8.12492 26.6625 9.0551L4.8 47.0226C4.27434 47.9223 3.99732 48.9456 3.99732 49.9876C3.99732 51.0296 4.27434 52.0529 4.8 52.9526C5.33932 53.8884 6.11792 54.6639 7.0559 55.1994C7.99388 55.735 9.05746 56.0113 10.1375 56.0001H53.8625C54.9417 56.0104 56.0042 55.7337 56.9413 55.1982C57.8783 54.6627 58.6561 53.8877 59.195 52.9526C59.7214 52.0533 59.9993 51.0303 60.0002 49.9883C60.0011 48.9463 59.7249 47.9228 59.2 47.0226ZM30 26.0001C30 25.4697 30.2107 24.961 30.5858 24.5859C30.9609 24.2108 31.4696 24.0001 32 24.0001C32.5304 24.0001 33.0391 24.2108 33.4142 24.5859C33.7893 24.961 34 25.4697 34 26.0001V36.0001C34 36.5305 33.7893 37.0392 33.4142 37.4143C33.0391 37.7894 32.5304 38.0001 32 38.0001C31.4696 38.0001 30.9609 37.7894 30.5858 37.4143C30.2107 37.0392 30 36.5305 30 36.0001V26.0001ZM32 48.0001C31.4067 48.0001 30.8266 47.8242 30.3333 47.4945C29.8399 47.1649 29.4554 46.6963 29.2284 46.1482C29.0013 45.6 28.9419 44.9968 29.0576 44.4148C29.1734 43.8329 29.4591 43.2983 29.8787 42.8788C30.2982 42.4592 30.8328 42.1735 31.4147 42.0577C31.9967 41.942 32.5999 42.0014 33.148 42.2285C33.6962 42.4555 34.1648 42.84 34.4944 43.3334C34.8241 43.8267 35 44.4068 35 45.0001C35 45.7958 34.6839 46.5588 34.1213 47.1214C33.5587 47.684 32.7956 48.0001 32 48.0001Z" fill="#F79009" />
</svg>
