<svg width="332" height="48" viewBox="0 0 332 48" fill="none" xmlns="http://www.w3.org/2000/svg">
<path d="M24.3262 2.17383C33.2087 2.17383 40.4099 9.23483 40.4099 17.946V29.3491C40.4592 30.7348 40.7755 34.2619 42.6124 38.4248C44.8432 43.4783 43.2422 43.2156 41.5803 42.7984L41.3683 42.7446L41.2626 42.7178C39.5026 42.2775 35.5735 40.551 34.3465 42.6781C34.309 42.7431 34.2716 42.8078 34.2344 42.8723L34.1599 43.0008C33.0098 44.9843 31.9495 46.5891 29.2308 45.4464C26.3665 44.2434 25.0162 43.8421 24.6074 43.8421H24.0511C23.6421 43.8421 22.2923 44.2434 19.4275 45.4464C16.7091 46.5891 15.6485 44.9843 14.4989 43.0008L14.4247 42.8723C14.3875 42.8078 14.35 42.7431 14.3126 42.6781C13.0848 40.551 9.15549 42.2775 7.39594 42.7178C7.37833 42.7223 7.36072 42.7267 7.34311 42.7312L7.07796 42.7984C5.41614 43.2156 3.81434 43.4783 6.0459 38.4248C7.81139 34.4241 8.17253 31.0047 8.24124 29.5138V17.946C8.24124 9.23483 15.4426 2.17383 24.3262 2.17383ZM24.3383 10.4909C19.7316 10.4909 16.03 14.1923 16.03 18.799C16.03 23.4057 19.7316 27.1071 24.3383 27.1071C28.9448 27.1071 32.6464 23.4057 32.6464 18.799C32.6464 14.1923 28.9448 10.4909 24.3383 10.4909ZM30.6426 19.78L30.6371 19.8097L30.6163 19.9179C30.1803 22.0753 28.6816 23.8901 26.7123 24.6863L26.6133 24.7252L26.5835 24.7364L26.6135 24.6846L26.7031 24.5253C27.4695 23.1401 27.9695 21.6199 28.1945 19.9975L28.2193 19.8097L28.223 19.78H30.6426ZM20.5189 19.78L20.5251 19.8459L20.5432 20.0203C20.7223 21.6439 21.2223 23.1663 22.0348 24.5533L22.1231 24.7014L22.1435 24.7344L22.1172 24.725L22.0177 24.6865C19.9997 23.8909 18.5051 22.0772 18.1231 19.9221L18.105 19.8159L18.0996 19.78H20.5189ZM26.2556 19.78L26.2442 19.8623L26.2194 20.027C25.9669 21.6161 25.3776 23.1244 24.5058 24.3996L24.4147 24.5305L24.4001 24.5509L24.3557 24.4946L24.2619 24.3728C23.3058 23.1071 22.7078 21.601 22.5081 19.993L22.4902 19.8372L22.484 19.78H26.2556ZM26.5329 12.8636L26.5592 12.8732L26.6587 12.9114C28.6767 13.7071 30.1713 15.5207 30.5535 17.6759L30.5714 17.7823L30.5769 17.8183H28.1573L28.1513 17.7523L28.1332 17.5779C27.9542 15.954 27.4541 14.4319 26.6416 13.0449L26.5533 12.8968L26.5329 12.8636ZM24.3398 13.0607L24.3907 13.1314L24.4854 13.2671C25.3905 14.5856 25.9687 16.0825 26.1663 17.6062L26.1847 17.759L26.1911 17.8183H22.494L22.5054 17.7357L22.5304 17.571C22.7829 15.9821 23.3722 14.4738 24.2438 13.1986L24.3351 13.0674L24.3398 13.0607ZM22.0931 12.8616L22.0388 12.9561L21.9523 13.1116C21.1834 14.5152 20.7049 16.0376 20.5365 17.6379L20.5191 17.816L20.5189 17.8183H18.0996L18.105 17.7838L18.1229 17.6761C18.5034 15.5309 19.9873 13.7111 21.9629 12.9122L22.0604 12.8737L22.0931 12.8616Z" fill="white"/>
<path d="M54.6327 20.2189H59.7504V27.4481C59.7504 31.0954 57.8891 33.1796 54.3001 33.1796C50.7118 33.1796 48.8513 31.0954 48.8513 27.4481V15.5941C48.8513 11.9465 50.7118 9.86328 54.3001 9.86328C57.8891 9.86328 59.7504 11.9465 59.7504 15.5941V17.809H56.2945V15.3664C56.2945 13.7385 55.5641 13.1202 54.4006 13.1202C53.2373 13.1202 52.5061 13.7385 52.5061 15.3664V27.6763C52.5061 29.3049 53.2373 29.8912 54.4006 29.8912C55.5641 29.8912 56.2945 29.3049 56.2945 27.6763V23.4756H54.6327V20.2189Z" fill="white"/>
<path d="M65.8999 32.9061H62.2451V10.1113H65.8999V19.8804H70.0527V10.1113H73.7744V32.9061H70.0527V23.1365H65.8999V32.9061Z" fill="white"/>
<path d="M81.684 9.86328C85.2735 9.86328 87.2335 11.9478 87.2335 15.5946V27.4486C87.2335 31.0957 85.2735 33.1806 81.684 33.1806C78.0957 33.1806 76.135 31.0957 76.135 27.4486V15.5946C76.135 11.9478 78.0957 9.86328 81.684 9.86328ZM81.684 13.1195C80.5222 13.1195 79.79 13.7385 79.79 15.3666V27.6768C79.79 29.3051 80.5222 29.9239 81.684 29.9239C82.8475 29.9239 83.578 29.3051 83.578 27.6768V15.3666C83.578 13.7385 82.8475 13.1195 81.684 13.1195Z" fill="white"/>
<path d="M94.5157 9.86328C98.0715 9.86328 99.899 11.948 99.899 15.5953V16.3111H96.4432V15.3666C96.4432 13.7385 95.778 13.12 94.6139 13.12C93.4519 13.12 92.7864 13.7385 92.7864 15.3666C92.7864 20.0557 99.9315 20.9357 99.9315 27.4486C99.9315 31.0961 98.0715 33.1796 94.482 33.1796C90.8942 33.1796 89.0327 31.0961 89.0327 27.4486V26.0482H92.4883V27.6763C92.4883 29.3041 93.2198 29.8905 94.3825 29.8905C95.5453 29.8905 96.276 29.3041 96.276 27.6763C96.276 22.9862 89.1324 22.1072 89.1324 15.5953C89.1324 11.948 90.9594 9.86328 94.5157 9.86328Z" fill="white"/>
<path d="M100.69 10.1113H111.987V13.3687H108.167V32.9068H104.512V13.3687H100.69V10.1113Z" fill="white"/>
<path d="M117.49 19.7179H122.507V22.9743H117.49V29.6501H123.804V32.9073H113.836V10.1113H123.804V13.368H117.49V19.7179Z" fill="white"/>
<path d="M131.506 10.1113C135.293 10.1113 136.923 11.8376 136.923 15.3545V17.1455C136.923 19.4892 136.158 21.0206 134.53 21.7691C136.357 22.5177 136.955 24.244 136.955 26.6211V30.1383C136.955 31.246 136.988 32.06 137.353 32.9061H133.632C133.61 32.8396 133.588 32.7763 133.567 32.7131L133.547 32.6501C133.399 32.1878 133.304 31.7031 133.3 30.2097L133.3 26.5237C133.3 24.407 132.569 23.6254 130.907 23.6254H129.645V32.9061H125.99V10.1113H131.506ZM131.407 13.368H129.645V20.3685H131.074C132.437 20.3685 133.266 19.7831 133.266 17.9588V15.7119C133.266 14.0833 132.702 13.368 131.407 13.368Z" fill="white"/>
<path d="M142.514 25.3515L137.895 10.1113H141.715L144.509 20.4997L147.299 10.1113H150.788L146.169 25.3515V32.9061H142.514V25.3515Z" fill="white"/>
<path d="M156 10.1938V32.8062H157.486V23.5028H160.296C163.882 23.5028 165.529 21.7261 165.529 18.1404V15.6854C165.529 12.3904 164.173 10.1938 160.684 10.1938H156ZM157.486 22.1461V11.5506H160.684C163.204 11.5506 164.044 13.1334 164.044 15.5885V18.2374C164.044 20.9831 162.913 22.1461 160.296 22.1461H157.486Z" fill="white"/>
<path d="M167.83 10.1938V32.8062H169.316V22.6952H171.674C174.258 22.6952 175.906 23.5351 175.906 26.5393V30.0927C175.906 31.3202 176.003 32.1278 176.39 32.8062H177.941C177.456 32.0632 177.392 31.0295 177.392 30.0927V26.5716C177.392 24.1166 176.455 22.4691 174.129 21.9522C176.358 21.4354 177.392 19.9171 177.392 17.2683V15.2978C177.392 12.0997 176.003 10.1938 172.546 10.1938H167.83ZM169.316 21.3385V11.5506H172.514C174.969 11.5506 175.906 13.0042 175.906 15.427V17.559C175.906 20.5955 174.355 21.3385 171.706 21.3385H169.316Z" fill="white"/>
<path d="M180.291 10.1938V32.8062H181.777V10.1938H180.291Z" fill="white"/>
<path d="M184.037 10.1938L189.012 32.8062H191.208L196.119 10.1938H194.729L190.142 31.0941L185.555 10.1938H184.037Z" fill="white"/>
<path d="M206.753 27.7992L207.884 32.8062H209.369L204.33 10.1615H202.166L197.223 32.8062H198.58L199.711 27.7992H206.753ZM203.2 11.8736L206.527 26.507H199.937L203.2 11.8736Z" fill="white"/>
<path d="M215.684 32.8062V11.5506H220.303V10.1938H209.61V11.5506H214.198V32.8062H215.684Z" fill="white"/>
<path d="M223.638 20.6601V11.5506H231.068V10.1938H222.153V32.8062H231.068V31.4494H223.638V22.0169H229.808V20.6601H223.638Z" fill="white"/>
<path d="M238.493 10.1938V32.8062H243.339C246.795 32.8062 248.281 30.8357 248.281 27.573V25.6025C248.281 23.0506 247.345 21.2416 244.89 20.757C247.183 20.2725 247.861 18.7542 247.861 16.2992V15.007C247.861 11.8736 246.634 10.1938 243.242 10.1938H238.493ZM239.979 20.1756V11.5506H243.21C245.633 11.5506 246.375 12.7781 246.375 15.1362V16.5899C246.375 19.4649 245.148 20.1756 242.499 20.1756H239.979ZM239.979 31.4494V21.5323H242.79C245.471 21.5323 246.795 22.566 246.795 25.5056V27.5407C246.795 30.0604 245.826 31.4494 243.339 31.4494H239.979Z" fill="white"/>
<path d="M250.702 10.1938V32.8062H252.188V22.6952H254.546C257.13 22.6952 258.778 23.5351 258.778 26.5393V30.0927C258.778 31.3202 258.875 32.1278 259.262 32.8062H260.813C260.328 32.0632 260.264 31.0295 260.264 30.0927V26.5716C260.264 24.1166 259.327 22.4691 257.001 21.9522C259.23 21.4354 260.264 19.9171 260.264 17.2683V15.2978C260.264 12.0997 258.875 10.1938 255.418 10.1938H250.702ZM252.188 21.3385V11.5506H255.386C257.841 11.5506 258.778 13.0042 258.778 15.427V17.559C258.778 20.5955 257.227 21.3385 254.578 21.3385H252.188Z" fill="white"/>
<path d="M263.066 27.2823C263.066 30.5772 264.584 33 268.008 33C271.497 33 273.015 30.5772 273.015 27.2823V15.7177C273.015 12.4228 271.497 10 268.008 10C264.584 10 263.066 12.4228 263.066 15.7177V27.2823ZM264.552 15.6208C264.552 13.1657 265.521 11.3567 268.008 11.3567C270.528 11.3567 271.529 13.1657 271.529 15.6208V27.3792C271.529 29.8343 270.528 31.6433 268.008 31.6433C265.521 31.6433 264.552 29.8343 264.552 27.3792V15.6208Z" fill="white"/>
<path d="M284.058 14.2963L287.095 32.8062H289.033L292.651 10.1938H291.327L288.064 30.7388L284.898 10.2907H283.315L280.02 30.8034L276.629 10.1938H275.175L278.825 32.8062H280.893L284.058 14.2963Z" fill="white"/>
<path d="M299.646 10C296.319 10.0323 294.833 12.2289 294.833 15.6208C294.833 21.9199 303.006 22.0169 303.006 27.4438C303.006 29.8666 302.069 31.611 299.581 31.611C297.094 31.611 296.157 29.8666 296.157 27.4438V26.184H294.736V27.3469C294.736 30.6096 296.157 33 299.614 33C303.07 33 304.492 30.6096 304.492 27.3469C304.492 21.1124 296.319 21.0155 296.319 15.5239C296.319 13.1334 297.223 11.3567 299.678 11.3567C302.133 11.3567 303.038 13.1657 303.038 15.5562V16.1376H304.459V15.6531C304.459 12.3904 303.07 10 299.646 10Z" fill="white"/>
<path d="M308.372 20.6601V11.5506H315.801V10.1938H306.886V32.8062H315.801V31.4494H308.372V22.0169H314.542V20.6601H308.372Z" fill="white"/>
<path d="M318.211 10.1938V32.8062H319.697V22.6952H322.055C324.639 22.6952 326.287 23.5351 326.287 26.5393V30.0927C326.287 31.3202 326.384 32.1278 326.771 32.8062H328.322C327.837 32.0632 327.773 31.0295 327.773 30.0927V26.5716C327.773 24.1166 326.836 22.4691 324.51 21.9522C326.739 21.4354 327.773 19.9171 327.773 17.2683V15.2978C327.773 12.0997 326.384 10.1938 322.927 10.1938H318.211ZM319.697 21.3385V11.5506H322.895C325.35 11.5506 326.287 13.0042 326.287 15.427V17.559C326.287 20.5955 324.736 21.3385 322.087 21.3385H319.697Z" fill="white"/>
</svg>
